<svg width="1099" height="320" viewBox="0 0 1099 320" fill="none" xmlns="http://www.w3.org/2000/svg">
<g clip-path="url(#clip0_64_1656)">
<mask id="mask0_64_1656" style="mask-type:alpha" maskUnits="userSpaceOnUse" x="101" y="-16" width="257" height="258">
<path d="M229.193 241.245C299.893 241.245 357.207 183.815 357.207 112.971C357.207 42.1274 299.893 -15.3027 229.193 -15.3027C158.493 -15.3027 101.18 42.1274 101.18 112.971C101.18 183.815 158.493 241.245 229.193 241.245Z" fill="url(#paint0_radial_64_1656)"/>
</mask>
<g mask="url(#mask0_64_1656)">
<mask id="mask1_64_1656" style="mask-type:alpha" maskUnits="userSpaceOnUse" x="101" y="44" width="99" height="138">
<path d="M199.223 44.221V181.721L114.132 134.876C96.878 125.377 96.878 100.563 114.132 91.0647L199.223 44.2197V44.221Z" fill="black"/>
</mask>
<g mask="url(#mask1_64_1656)">
<path d="M229.193 241.245C299.893 241.245 357.207 183.815 357.207 112.971C357.207 42.1274 299.893 -15.3027 229.193 -15.3027C158.493 -15.3027 101.18 42.1274 101.18 112.971C101.18 183.815 158.493 241.245 229.193 241.245Z" fill="url(#paint1_radial_64_1656)"/>
</g>
</g>
<mask id="mask2_64_1656" style="mask-type:alpha" maskUnits="userSpaceOnUse" x="-38" y="78" width="257" height="258">
<path d="M90.4268 78.7904C19.7268 78.7904 -37.5868 136.221 -37.5868 207.064C-37.5868 277.908 19.7268 335.338 90.4268 335.338C161.127 335.338 218.44 277.908 218.44 207.064C218.44 136.221 161.127 78.7904 90.4268 78.7904Z" fill="url(#paint2_radial_64_1656)"/>
</mask>
<g mask="url(#mask2_64_1656)">
<mask id="mask3_64_1656" style="mask-type:alpha" maskUnits="userSpaceOnUse" x="120" y="138" width="99" height="138">
<path d="M120.399 275.814L120.399 138.314L205.49 185.159C222.743 194.658 222.743 219.472 205.49 228.97L120.399 275.815L120.399 275.814Z" fill="black"/>
</mask>
<g mask="url(#mask3_64_1656)">
<path d="M90.4268 78.7904C19.7268 78.7904 -37.5868 136.221 -37.5868 207.064C-37.5868 277.908 19.7268 335.338 90.4268 335.338C161.127 335.338 218.44 277.908 218.44 207.064C218.44 136.221 161.127 78.7904 90.4268 78.7904Z" fill="url(#paint3_radial_64_1656)"/>
</g>
</g>
<path fill-rule="evenodd" clip-rule="evenodd" d="M775.873 100.078C779.381 100.078 782.422 98.7934 784.992 96.2209H784.99C787.556 93.6472 788.843 90.6084 788.843 87.0934C788.843 83.5784 787.587 80.5346 785.083 77.9659C782.573 75.3934 779.51 74.1084 775.872 74.1084C772.234 74.1084 769.165 75.3934 766.657 77.9659C764.151 80.5359 762.901 83.5821 762.901 87.0934C762.901 90.6046 764.185 93.6484 766.755 96.2209C769.322 98.7934 772.365 100.078 775.873 100.078ZM765.718 114.192V208.285H786.025V114.192H765.718ZM530.416 111.746C543.325 111.746 554.357 116.515 563.505 126.048C572.653 135.582 577.231 147.312 577.231 161.238C577.231 175.165 572.653 186.737 563.505 196.335C554.358 205.932 543.325 210.731 530.416 210.731C516.131 210.731 505.161 205.402 497.517 194.736V208.285H477.21V76.5559H497.517V127.553C505.161 117.015 516.131 111.746 530.416 111.746ZM505.975 182.786C511.616 188.496 518.698 191.348 527.223 191.348C535.747 191.348 542.825 188.496 548.466 182.786C554.107 177.08 556.928 169.895 556.928 161.238C556.928 152.582 554.107 145.401 548.466 139.691C542.825 133.985 535.743 131.128 527.223 131.128C518.702 131.128 511.616 133.985 505.975 139.691C500.338 145.401 497.517 152.582 497.517 161.238C497.517 169.895 500.338 177.08 505.975 182.786ZM307.221 147.596C303.769 145.777 302.049 143.298 302.049 140.161L302.051 140.16C302.051 136.9 303.368 134.42 305.998 132.728C308.632 131.032 311.889 130.185 315.776 130.185C324.298 130.185 330.185 133.762 333.446 140.913L350.555 131.316C347.295 125.168 342.628 120.37 336.55 116.92C330.468 113.468 323.544 111.743 315.776 111.743C305.998 111.743 297.82 114.377 291.239 119.646C284.661 124.915 281.371 131.88 281.371 140.536C281.371 146.81 283.091 151.986 286.542 156.06C289.986 160.138 294.217 163.055 299.231 164.81C304.241 166.57 309.226 168.103 314.177 169.422C319.128 170.741 323.325 172.338 326.776 174.221C330.22 176.103 331.943 178.55 331.943 181.56C331.943 188.588 326.618 192.098 315.964 192.098C305.309 192.098 298.354 187.583 295.094 178.55L277.61 188.711C280.617 195.612 285.442 201.008 292.086 204.896C298.728 208.783 306.685 210.73 315.964 210.73C326.491 210.73 335.233 208.161 342.191 203.015C349.146 197.872 352.622 190.785 352.622 181.751C352.622 175.35 350.899 170.055 347.455 165.85C344.003 161.645 339.772 158.668 334.762 156.91C329.748 155.153 324.766 153.616 319.816 152.297C314.862 150.983 310.665 149.415 307.221 147.596ZM459.052 114.191H438.749V127.552C431.101 117.013 420.135 111.745 405.846 111.745C392.938 111.745 381.904 116.513 372.757 126.047C363.606 135.582 359.031 147.435 359.031 161.237C359.031 175.04 363.606 186.736 372.757 196.333C381.906 205.931 392.938 210.73 405.846 210.73C420.135 210.73 431.101 205.4 438.749 194.735V208.283H459.052V114.191ZM409.043 191.348C400.519 191.348 393.437 188.496 387.796 182.786C382.159 177.08 379.338 169.895 379.338 161.238C379.338 152.582 382.159 145.401 387.796 139.691C393.437 133.985 400.523 131.128 409.043 131.128C417.564 131.128 424.646 133.985 430.287 139.691C435.928 145.401 438.749 152.582 438.749 161.238C438.749 169.895 435.928 177.08 430.287 182.786C424.646 188.496 417.568 191.348 409.043 191.348ZM685.09 114.191H664.783V127.552C657.139 117.013 646.17 111.745 631.885 111.745C618.972 111.745 607.939 116.513 598.795 126.047C589.644 135.582 585.07 147.435 585.07 161.237C585.07 175.04 589.644 186.736 598.795 196.333C607.94 205.931 618.972 210.73 631.885 210.73C646.17 210.73 657.139 205.4 664.783 194.735V208.283H685.09V114.191ZM635.078 191.348C626.554 191.348 619.475 188.496 613.835 182.786C608.194 177.08 605.373 169.895 605.373 161.238C605.373 152.582 608.194 145.401 613.835 139.691C619.475 133.985 626.558 131.128 635.078 131.128C643.599 131.128 650.684 133.985 656.325 139.691C661.962 145.401 664.783 152.582 664.783 161.238C664.783 169.895 661.962 177.08 656.325 182.786C650.684 188.496 643.602 191.348 635.078 191.348ZM754.444 133.763H731.13V178.927C731.13 182.818 732.007 185.608 733.764 187.3C735.517 188.995 738.117 189.936 741.565 190.123C745.012 190.313 749.302 190.283 754.444 190.03V208.283C738.901 210.166 727.746 208.817 720.978 204.238C714.211 199.66 710.827 191.223 710.827 178.926V133.762H693.531V114.19H710.827V93.8671L731.13 87.8434V114.19H754.444V133.762V133.763ZM853.498 111.746C864.276 111.746 872.984 115.196 879.633 122.095C886.274 128.996 889.594 138.47 889.594 150.513V208.285H869.291V152.582C869.291 145.557 867.41 140.161 863.65 136.397C859.89 132.633 854.749 130.751 848.234 130.751C841.089 130.751 835.325 132.981 830.938 137.432C826.551 141.887 824.357 148.695 824.357 157.852V208.286H804.054V114.193H824.357V126.237C830.498 116.58 840.213 111.747 853.499 111.747L853.498 111.746ZM915.557 196.428C925.209 205.966 936.928 210.731 950.713 210.731C964.625 210.731 976.378 205.966 985.966 196.428C995.554 186.897 1000.35 175.165 1000.35 161.238C1000.35 147.312 995.554 135.582 985.966 126.048C976.378 116.515 964.499 111.746 950.713 111.746C936.928 111.746 925.209 116.515 915.557 126.048C905.905 135.583 901.081 147.312 901.081 161.238C901.081 175.165 905.905 186.898 915.557 196.428ZM950.712 190.972C942.441 190.972 935.487 188.148 929.846 182.502C924.205 176.86 921.384 169.767 921.384 161.238C921.384 152.71 924.205 145.617 929.846 139.975C935.487 134.328 942.438 131.505 950.712 131.505C958.987 131.505 965.941 134.328 971.582 139.975C977.223 145.617 980.044 152.706 980.044 161.238C980.044 169.771 977.223 176.86 971.582 182.502C965.941 188.148 958.983 190.972 950.712 190.972Z" fill="white"/>
</g>
<defs>
<radialGradient id="paint0_radial_64_1656" cx="0" cy="0" r="1" gradientUnits="userSpaceOnUse" gradientTransform="translate(229.193 112.971) rotate(180) scale(128.082 128.205)">
<stop offset="0.6" stop-opacity="0"/>
<stop offset="0.9"/>
</radialGradient>
<radialGradient id="paint1_radial_64_1656" cx="0" cy="0" r="1" gradientUnits="userSpaceOnUse" gradientTransform="translate(229.193 112.971) rotate(180) scale(128.082 128.205)">
<stop offset="0.75" stop-color="#FF9BE6"/>
<stop offset="0.98" stop-color="#FFF5EB"/>
</radialGradient>
<radialGradient id="paint2_radial_64_1656" cx="0" cy="0" r="1" gradientUnits="userSpaceOnUse" gradientTransform="translate(90.4268 207.064) scale(128.082 128.205)">
<stop offset="0.6" stop-opacity="0"/>
<stop offset="0.9"/>
</radialGradient>
<radialGradient id="paint3_radial_64_1656" cx="0" cy="0" r="1" gradientUnits="userSpaceOnUse" gradientTransform="translate(90.4268 207.064) scale(128.082 128.205)">
<stop offset="0.75" stop-color="#FF9BE6"/>
<stop offset="0.98" stop-color="#FFF5EB"/>
</radialGradient>
<clipPath id="clip0_64_1656">
<rect width="1098.95" height="320" fill="white"/>
</clipPath>
</defs>
</svg>
